/* XPM */
static char *d189244239d843def4c34a3bec87f10413TKugJHzlkE2iGM[] = {
/* columns rows colors chars-per-pixel */
"80 40 140 2 ",
"   c #2563EB",
".  c #2C66EC",
"X  c #2D69EC",
"o  c #3267EB",
"O  c #3A67EC",
"+  c #336AEC",
"@  c #3C6DEC",
"#  c #2F71ED",
"$  c #3574EE",
"%  c #3D73ED",
"&  c #3478EE",
"*  c #3F78EE",
"=  c #436BEC",
"-  c #4271EC",
";  c #4B75ED",
":  c #457CEE",
">  c #4B7CEE",
",  c #5376ED",
"<  c #537BED",
"1  c #5C7CEC",
"2  c #4B7BF1",
"3  c #537EF2",
"4  c #617EED",
"5  c #3A81F1",
"6  c #4E80EF",
"7  c #5382EF",
"8  c #5C84EE",
"9  c #5E8AEF",
"0  c #478FF4",
"q  c #5681F2",
"w  c #5983F2",
"e  c #548CF1",
"r  c #5A8EF1",
"t  c #5E91F1",
"y  c #5E98F5",
"u  c #6384EE",
"i  c #6C87EE",
"p  c #6588EF",
"a  c #6E8CEE",
"s  c #728CEE",
"d  c #7591EF",
"f  c #7C99EF",
"g  c #648DF0",
"h  c #6B8FF1",
"j  c #708FF0",
"k  c #6395F2",
"l  c #6D92F1",
"z  c #669EF4",
"x  c #6B9FF4",
"c  c #7494F1",
"v  c #7B95F0",
"b  c #7E9AF1",
"n  c #75A4F5",
"m  c #7BA4F6",
"M  c #76ACF6",
"N  c #7CA8F6",
"B  c #7BB1F6",
"V  c #7FB6F9",
"C  c #8297F0",
"Z  c #8D96F1",
"A  c #829BF0",
"S  c #9099F1",
"D  c #93A5EF",
"F  c #85A5F3",
"G  c #8BA6F2",
"H  c #84ABF4",
"J  c #8CABF4",
"K  c #91A6F2",
"L  c #98A2F2",
"P  c #94AAF3",
"I  c #99ACF1",
"U  c #85B0F6",
"Y  c #8CB1F6",
"T  c #83B3F8",
"R  c #8BBCF9",
"E  c #95B4F6",
"W  c #9BB5F5",
"Q  c #97BAF7",
"!  c #9DBAF7",
"~  c #94BBF9",
"^  c #A0AFF3",
"/  c #A3B6F4",
"(  c #A8B7F5",
")  c #A3BBF6",
"_  c #ACBBF4",
"`  c #A2BEF8",
"'  c #B0BBF1",
"]  c #97C4F9",
"[  c #9BC5F9",
"{  c #ADC2F7",
"}  c #A4C2F8",
"|  c #ABC5F9",
" . c #A6CAFA",
".. c #ADCCFA",
"X. c #B3C3F6",
"o. c #BAC4F5",
"O. c #B5C8F6",
"+. c #BDCAF6",
"@. c #B4C6F8",
"#. c #B4CAF9",
"$. c #BCCEF9",
"%. c #B5D4FB",
"&. c #BBD4FB",
"*. c #C3CDF7",
"=. c #C9D2F7",
"-. c #C1D1F8",
";. c #C2D2F9",
":. c #C6D4F9",
">. c #C9D2F8",
",. c #C8D4F8",
"<. c #CAD6F9",
"1. c #C1D9FB",
"2. c #C3DBFC",
"3. c #C3DDFC",
"4. c #C7DDFD",
"5. c #CADAFA",
"6. c #CADBFB",
"7. c #CADEFC",
"8. c #D1DAF9",
"9. c #D1DDFB",
"0. c #D2DDFB",
"q. c #CCE0FC",
"w. c #CFE2FD",
"e. c #D1E1FD",
"r. c #D4E3FD",
"t. c #D7E6FD",
"y. c #DBE2FB",
"u. c #DFE5FB",
"i. c #E0E6FB",
"p. c #E5EBFC",
"a. c #E7EBFC",
"s. c #E7ECFC",
"d. c #E8ECFC",
"f. c #ECEFFD",
"g. c #EDF1FD",
"h. c #F0F2FD",
"j. c #F2F5FD",
"k. c #F5F7FE",
"l. c #FBFBFE",
"z. c white",
/* pixels */
"z.l.d.8.*.o.o.o.o.o.o.o.o.o.o.o.o.o.o.o.o.o.o.o.o.o.o.o.o.o.o.o.o.o.o.o.o.o.o.o.o.o.o.o.o.o.o.o.o.o.o.o.o.o.o.o.o.o.o.o.o.o.o.o.o.o.o.o.o.o.o.o.o.o.o.o.>.u.k.z.",
"l.a.+.P v i i i i i i i i i i i i i i i i i i i i i i i i i i i i i i i i i i i i i i i i i i i i i i i i i i i i i i i i i i i i i i i i i i i i i i s A _ y.l.",
"h.*.A ; o                                                                                                                                               @ u _ s.",
"y.K ;                                                                                                                                                     . p <.",
"*.p                                                                                                                                                         . / ",
"( ;                                                                                                                                                           c ",
"G @                                                                                                                                                           ; ",
"A +                                                                                                                                                           + ",
"v X                                                                                                                                                             ",
"v .                                                                                                                                                             ",
"v .                                                                                                                                                             ",
"v .                         X % - - - - @ o . + - O     + % @ . . @ - - - - % +   + % - - - - % .   @ - - - - O . X % @ .     @ - o                             ",
"v .                       X > l c c c c j , - 9 c u O X 6 c s - % g c c v c h < + > h c v v c a - % g c c c c p - : l d ;   # g c ;                             ",
"v .                       # x } { ) W ! ) C u Y { D ; $ x { ( u 7 H W | @.) I s - k Y ` @.X./ K 9 g Q ) W W } I i z } _ d % 5 Q { a .                           ",
"v .                       & B 3.6.) E } &._ b  .7._ 1 * T 7.=.s 6 F W 2.e.X.P i - t J ..w.9._ K g Y 1.O.W W %.$.P V 4.9.( 9 0 %.e.b +                           ",
"v .                       & B 3.-.b 7 n %.&.J  .7._ 1 * T 7.=.s + ; l %.6.L 1 @ . % 7 Y 4.<.A < r  .w./ u r [ 7.X.R 4.t.:.K y %.e.b +                           ",
"v .                       & B 3.-.b 7 n %.$.J  .7._ 1 * T 7.=.s   . w #.6.S =       % N 4.<.s + r %.w.I ; : ] w.o.R 4.t.6.#.J &.e.b +                           ",
"v .                       & B 3.-.G l U &.@.F  .7._ 1 * T 7.=.s     q #.6.Z =       + N 4.<.s + r %.w.I ; * ] w.+.R 4.9.#.&...7.e.b +                           ",
"v .                       & B 3.-.G l H &.O.G  .7._ 1 * T 7.=.s     q #.6.Z =       + N 4.<.s + r %.w.I ; * ] w.+.R 4.<.E | 2.t.r.b +                           ",
"v .                       & B 3.-.f 7 n %.&.J  .7.' u : T 7.=.i     q ..6.Z =       + N 4.<.s + r %.w.I ; : ] w.o.R 4.<.b m &.t.r.b +                           ",
"v .                       & B 2.-.A 9 m %.$.G [ 6.X.d g ~ 6.o.i     q ..6.Z =       + m 2.<.s + e  .7./ i g  .6._ R 4.=.s 2 ~ w.9.b +                           ",
"v .                       & M &.-.W G E #.( c H #.X.K J } $.^ <     3 | -.Z =       + n &.+.i . : Y &._ G J ..O.P B &.+.i + z %.6.v +                           ",
"v .                       # z ` { ) W ! ) v ; 8 Y ) W W ` / s O     2 E ) s O       + k ` ) 4   + 9 W ) W W ) P p z ` ( 8   5 E { i .                           ",
"v .                       X > l v v c v j ; . + 8 c c v v i =       + g l , .         : l a =     + g c c c c u @ : l a -   # g c ;                             ",
"v .                           o + + + + +       . + + + + o           o +               o o         o + + + + .     o o       o +                               ",
"v .                                                                                                                                                             ",
"v .                                                                                                                                                             ",
"v .                                                                                                                                                             ",
"v .                                                                                                                                                             ",
"v .                                                                                                                                                             ",
"v .                                                                                                                                                             ",
"v X                                                                                                                                                           . ",
"A +                                                                                                                                                           @ ",
"K @                                                                                                                                                           < ",
"_ <                                                                                                                                                           b ",
"=.d +                                                                                                                                                       % _ ",
"i.W 8 o                                                                                                                                                   @ v 8.",
"j.<.P u - + . . . . . . . . . . . . . . . . . . . . . . . . . . . . . . . . . . . . . . . . . . . . . . . . . . . . . . . . . . . . . . . . . . . . X + < v o.f.",
"z.g.<./ A s a a a a a a a a a a a a a a a a a a a a a a a a a a a a a a a a a a a a a a a a a a a a a a a a a a a a a a a a a a a a a a a a a a a a a d K o.a.l.",
"z.l.g.y.*.o.o.o.o.o.o.o.o.o.o.o.o.o.o.o.o.o.o.o.o.o.o.o.o.o.o.o.o.o.o.o.o.o.o.o.o.o.o.o.o.o.o.o.o.o.o.o.o.o.o.o.o.o.o.o.o.o.o.o.o.o.o.o.o.o.o.o.o.o.o.+.<.s.l.z."
};
