/* XPM */
static char *_235dc6a5a7c4ec9978e3ab0ab18117cCJUbWTCvw9bzIp6E[] = {
/* columns rows colors chars-per-pixel */
"54 20 2 1 ",
"  c black",
". c white",
/* pixels */
"                                                      ",
" .................................................... ",
" .................................................... ",
" .................................................... ",
" .................................................... ",
" .................................................... ",
" .................................................... ",
" .........   .. .. .     .     ..  .. .. ............ ",
" ......... .. . .. ... ..... ... .. .  . ............ ",
" .........   .. .. ... ..... ... .. . .  ............ ",
" ......... .. . .. ... ..... ... .. . .. ............ ",
" .........   ...  .... ..... ....  .. .. ............ ",
" .................................................... ",
" .................................................... ",
" .................................................... ",
" .................................................... ",
" .................................................... ",
" .................................................... ",
" .................................................... ",
"                                                      "
};
