/* XPM */
static char *ee89945befe440c3c89a13c9c004d09aPFVgMSw9brSfVybD[] = {
/* columns rows colors chars-per-pixel */
"160 40 157 2 ",
"   c #2563EB",
".  c #2A65EB",
"X  c #256FED",
"o  c #2D69EC",
"O  c #3267EC",
"+  c #3867EB",
"@  c #356CEC",
"#  c #3B6FEC",
"$  c #2573EE",
"%  c #2E75EF",
"&  c #3374ED",
"*  c #3C72EC",
"=  c #3378EE",
"-  c #3C7AEE",
";  c #2965F0",
":  c #436BEC",
">  c #4E6BEC",
",  c #546DEC",
"<  c #4375EC",
"1  c #457CEE",
"2  c #4B7DEE",
"3  c #5D73ED",
"4  c #537EEE",
"5  c #4E7BF5",
"6  c #707BEE",
"7  c #2582F2",
"8  c #258BF4",
"9  c #2E8CF5",
"0  c #3E89F1",
"q  c #4C81EF",
"w  c #5682EE",
"e  c #5D86EF",
"r  c #4787F1",
"t  c #438CF2",
"y  c #498AF1",
"u  c #558DF4",
"i  c #5A8BF3",
"p  c #4391F2",
"a  c #4C93F2",
"s  c #429AF7",
"d  c #5395F2",
"f  c #5B93F5",
"g  c #6A87EE",
"h  c #678DEF",
"j  c #6E8AEF",
"k  c #7C87EE",
"l  c #718DED",
"z  c #7D8EED",
"x  c #7691EF",
"c  c #7B92EC",
"v  c #698FF0",
"b  c #6096F6",
"n  c #6C92F1",
"m  c #679EF7",
"M  c #7495F0",
"N  c #7897F0",
"B  c #759BF2",
"V  c #7A9BF1",
"C  c #4FA4F7",
"Z  c #52A1F7",
"A  c #5FA3F5",
"S  c #56B0F9",
"D  c #6FA5F6",
"F  c #6DAFF7",
"G  c #77A4F5",
"H  c #7BA1F3",
"J  c #64B5F9",
"K  c #6DB3F8",
"L  c #7BB5F8",
"P  c #8E8FEF",
"I  c #8591EF",
"U  c #8A9EED",
"Y  c #8095F0",
"T  c #859DF1",
"R  c #8C98F0",
"E  c #9799F0",
"W  c #9A9DF1",
"Q  c #A491F0",
"!  c #97A5ED",
"~  c #99A7EE",
"^  c #9FAAED",
"/  c #85A3F3",
"(  c #89A5F3",
")  c #86AAF4",
"_  c #8CAAF4",
"`  c #93A5F2",
"'  c #99A6F2",
"]  c #91AEF4",
"[  c #9CABF2",
"{  c #8DB4F6",
"}  c #85B5F8",
"|  c #85BEFA",
" . c #8BBDFA",
".. c #9CB5F5",
"X. c #9BB9F7",
"o. c #91BFFA",
"O. c #9BBCF9",
"+. c #A1ADEE",
"@. c #A1AEF2",
"#. c #A2B5F4",
"$. c #ABB5F3",
"%. c #A3BAF5",
"&. c #B0B4F1",
"*. c #B4BCF5",
"=. c #BEBCF6",
"-. c #84C2FB",
";. c #8CC5FB",
":. c #95C3FA",
">. c #9CC4FA",
",. c #93C9FB",
"<. c #9AC8FC",
"1. c #AEC2F6",
"2. c #A4C5FB",
"3. c #A1CAFA",
"4. c #ACCEFA",
"5. c #B3C3F6",
"6. c #BDC5F5",
"7. c #BCCBF7",
"8. c #BCCEF8",
"9. c #A4D4FD",
"0. c #A9D3FD",
"q. c #ABDAFD",
"w. c #B4D5FB",
"e. c #BCD3FA",
"r. c #B7DDFD",
"t. c #BBDCFD",
"y. c #BDE0FE",
"u. c #C2C7F2",
"i. c #C4CAF4",
"p. c #CCCEF6",
"a. c #C3CFF8",
"s. c #C2D0F7",
"d. c #CDD5F6",
"f. c #CED8F7",
"g. c #C5D1F8",
"h. c #CBD7F9",
"j. c #CEDAF9",
"k. c #D4DDFA",
"l. c #DBDFFA",
"z. c #C5E3FE",
"x. c #CAE4FE",
"c. c #D4E4FD",
"v. c #DBE4FB",
"b. c #D2E8FE",
"n. c #D5E9FE",
"m. c #DBE9FD",
"M. c #DBEAFE",
"N. c #E2EAFC",
"B. c #E7EDFD",
"V. c #E8EDFD",
"C. c #ECF1FD",
"Z. c #F2F5FE",
"A. c #F4F7FE",
"S. c #F5F8FE",
"D. c #FAFBFE",
"F. c #FBFCFF",
"G. c white",
/* pixels */
"G.G.G.G.G.A.V.k.g.a.6.6.6.6.6.6.6.6.6.6.6.6.6.6.6.6.6.6.6.6.6.6.6.6.6.6.6.6.6.6.6.6.6.6.6.6.6.6.6.6.6.6.6.6.6.6.6.6.6.6.6.6.6.6.6.6.6.6.6.6.6.6.6.6.6.6.6.6.6.6.6.6.6.6.6.6.6.6.6.6.6.6.6.6.6.6.6.6.6.6.6.6.6.6.6.6.6.6.6.6.6.6.6.6.6.6.6.6.6.6.6.6.6.6.6.6.6.6.6.6.6.6.6.6.6.6.6.6.6.6.6.6.6.6.6.6.6.6.6.6.a.g.k.B.A.G.G.G.G.G.",
"G.G.G.S.v.%.N 4 * o .                                                                                                                                                                                                                                                                                     . o * 4 N %.v.S.G.G.G.",
"G.G.C.5.v O                                                                                                                                                                                                                                                                                                         o i 7.V.F.G.",
"G.N...w .                                                                                                                                                                                                                                                                                                               2 %.M.D.",
"S.%.w .                                                                                                                                                                                                                                                                                                                   2 5.V.",
"e.h O                                                                                                                                                                                                                                                                                                                       M h.",
"_ 1 .                                                                                                                                                                                                                                                                                                                       < a.",
"B @                                                                                                                                                                                                                                                                                                                         . 6.",
"n O                                                                                                                                                                                                                                                                                                                           6.",
"n O                                                                                                                                                                                                                                                                                                                           6.",
"n O                                                                                                                                                                                                                                                                                                                           6.",
"n O                                                                                                                                                                                                                                                                                                                           6.",
"n @                                                     o - 2 q q q q q q q q q q 2 # .   o - 2 q q 2 @ .       o 1 2 q 2 < .     = 1 q q q q q q q q q q 2 < o     = 1 q q q q q q q q q q 2 < o     & 1 2 q q q q q q q 2 < O     & 1 2 q 2 * .       X - 1 q 2 2 o                                                         6.",
"n @                                                     p ;.x.M.M.v.c.c.b.b.b.c.M.v.W 3 O t -.z.M.M.i.c @     X s 9.b.M.v.$.<   & K t.x.b.c.M.M.M.M.c.c.b.k.$.<   o K w.x.b.c.M.M.M.M.c.c.b.k.*.< . o K r.b.c.c.b.b.b.b.n.v.*.6 + & S r.n.M.f.+.< .     8 ;.z.M.v.p.2 .                                                       6.",
"n O                                                     p ;.x.M.M.d.#.( / / ) o.z.c.a.$.c a -.z.M.M.i.c @     X s 9.b.M.v.$.<   o y B / / O.t.n.M.v.$.` / T j O     r B / / O.t.n.M.v.*.` / T l - a { 0.x.j.5._ / / / } w.x.h.*.` 1 S r.n.M.v.s.#.z @   8 ;.z.M.v.p.2 .                                                       6.",
"n O                                                     p ;.x.M.M.u.l @     $ Z q.n.M.l.@.d -.z.M.M.i.c @     X s 9.b.M.v.$.<             m 0.b.M.v.P > .                   b 9.b.M.v.E , .     = J y.n.M.d.! *       8 ,.z.M.v.i.q S r.n.M.M.M.k.&.e : 9 ;.z.M.v.p.2 .                                                       6.",
"n O                                                     p ;.x.M.M.u.l @     $ Z q.n.M.l.@.d -.z.M.M.i.c @     X s 9.b.M.v.$.<             m 0.b.M.v.P > .                   b 9.b.M.v.E , .     = J y.n.M.d.! *       8 ,.z.M.v.i.q S r.n.M.M.M.M.M.M.Q i ;.z.M.v.p.2 .                                                       6.",
"n O                                                     p ;.x.M.M.d...H B B G | y.c.a.$.x a -.z.M.M.i.c @     X s 9.b.M.v.$.<             m 0.b.M.v.P > .                   b 9.b.M.v.E , .     = J y.n.M.d.! *       8 ,.z.M.v.i.q S r.n.M.v.8.2.t.n.=.O.w.x.M.v.p.2 .                                                       6.",
"n O                                                     p ;.x.M.M.d.[ V V V H  .t.c.g.5.T a -.z.M.M.i.c @     X s 9.b.M.v.$.<             m 0.b.M.v.P > .                   b 9.b.M.v.E , .     = J y.n.M.d.! *       8 ,.z.M.v.i.q S r.n.M.d.[ i | t.b.M.M.M.M.v.p.2 .                                                       6.",
"n O                                                     p ;.x.M.M.u.l @     $ Z q.n.M.l.@.d -.z.M.M.i.c @     X s 9.b.M.v.$.<             m 0.b.M.v.P > .                   b 9.b.M.v.E , .     = J y.n.M.d.! *       8 ,.z.M.v.i.q S r.n.M.d.^ < * 5 <.x.M.M.M.v.p.2 .                                                       6.",
"n O                                                     p ;.x.M.M.i.l # o o % Z q.n.v.k.[ d | z.M.M.i.c * o o % s q.b.M.k.$.<           ; m 0.b.M.v.P > .                   b 3.b.M.v.E , .     = J t.b.M.d.~ < o o o 9 ,.x.M.v.u.q S r.n.M.d.^ *   ; D <.t.b.M.v.p.2 .                                                       6.",
"n O                                                     p ;.x.M.M.k.1.......X.3.z.v.5.' g - f ) 0.x.k.5.......X.3.z.c.6.' l O             m 0.b.M.v.P > .                 ; b 9.b.M.v.E , .     o t H 3.z.k.7.%.......>.t.b.g.@.Y - S r.n.M.d.^ *       8 ;.z.M.v.p.2 .                                                       6.",
"n @                                                     0 L 4.e.e.e.e.e.e.e.e.e.e.8.I > .     - F 4.e.e.e.e.e.e.e.e.8.R , .             ; f :.w.e.8.k : .                   u  .w.e.8.I > .           A >.e.e.e.e.e.e.e.e.e.[ 3 . o C 3.e.e.5.U #       7 L 4.e.e.*.1 .                                                       6.",
"n @                                                         . . . . . . . . . . . . .             . . . . . . . . . . .                     . . . .                           . . . . .                 . . . . . . . . . . .         . . . . .             . . . .                                                           6.",
"n @                                                                                                                                                                                                                                                                                                                           6.",
"n @                                                                                                                                                                                                                                                                                                                           6.",
"n O                                                                                                                                                                                                                                                                                                                           6.",
"n O                                                                                                                                                                                                                                                                                                                           6.",
"n O                                                                                                                                                                                                                                                                                                                           6.",
"n O                                                                                                                                                                                                                                                                                                                           6.",
"n O                                                                                                                                                                                                                                                                                                                           6.",
"n O                                                                                                                                                                                                                                                                                                                           6.",
"V *                                                                                                                                                                                                                                                                                                                         O 7.",
"..4 o                                                                                                                                                                                                                                                                                                                       4 g.",
"v.V *                                                                                                                                                                                                                                                                                                                     . ( v.",
"G.7.n @                                                                                                                                                                                                                                                                                                                 . v s.A.",
"G.A.8.N *                                                                                                                                                                                                                                                                                                             O n s.C.G.",
"G.G.G.k.] 2 o                                                                                                                                                                                                                                                                                                     o 2 ) v.D.G.G.",
"G.G.G.G.Z.h...V e 2 * @ @ @ @ @ @ @ @ @ @ @ @ @ @ @ @ @ @ @ @ @ @ @ @ @ @ @ @ @ @ @ @ @ @ @ @ @ @ @ @ @ @ @ @ @ @ @ @ @ @ @ @ @ @ @ @ @ @ @ @ @ @ @ @ @ @ @ @ @ @ @ @ @ @ @ @ @ @ @ @ @ @ @ @ @ @ @ @ @ @ @ @ @ @ @ @ @ @ @ @ @ @ @ @ @ @ @ @ @ @ @ @ @ @ @ @ @ @ @ @ @ @ @ @ @ @ @ @ @ @ @ @ @ @ @ @ @ @ * 2 e V #.h.A.G.G.G.G.",
"G.G.G.G.G.G.F.B.k.h.g.a.a.a.a.a.a.a.a.a.a.a.a.a.a.a.a.a.a.a.a.a.a.a.a.a.a.a.a.a.a.a.a.a.a.a.a.a.a.a.a.a.a.a.a.a.a.a.a.a.a.a.a.a.a.a.a.a.a.a.a.a.a.a.a.a.a.a.a.a.a.a.a.a.a.a.a.a.a.a.a.a.a.a.a.a.a.a.a.a.a.a.a.a.a.a.a.a.a.a.a.a.a.a.a.a.a.a.a.a.a.a.a.a.a.a.a.a.a.a.a.a.a.a.a.a.a.a.a.a.a.a.a.a.a.a.a.a.a.g.h.v.V.D.G.G.G.G.G.G."
};
